Coordinates
version=1
nRows=8
nColumns=63
inDegrees=yes

Units are S.I. units (second, meters, Newtons, ...)
If the header above contains a line with 'inDegrees', this indicates whether rotational values are in degrees (yes) or radians (no).

endheader
time	pelvis_tilt	pelvis_list	pelvis_rotation	pelvis_tx	pelvis_ty	pelvis_tz	hip_flexion_r	hip_adduction_r	hip_rotation_r	knee_angle_r	knee_angle_r_beta	ankle_angle_r	subtalar_angle_r	mtp_angle_r	hip_flexion_l	hip_adduction_l	hip_rotation_l	knee_angle_l	knee_angle_l_beta	ankle_angle_l	subtalar_angle_l	mtp_angle_l	L5_S1_Flex_Ext	L5_S1_Lat_Bending	L5_S1_axial_rotation	L4_L5_Flex_Ext	L4_L5_Lat_Bending	L4_L5_axial_rotation	L3_L4_Flex_Ext	L3_L4_Lat_Bending	L3_L4_axial_rotation	L2_L3_Flex_Ext	L2_L3_Lat_Bending	L2_L3_axial_rotation	L1_L2_Flex_Ext	L1_L2_Lat_Bending	L1_L2_axial_rotation	L1_T12_Flex_Ext	L1_T12_Lat_Bending	L1_T12_axial_rotation	Abs_r3	Abs_r2	Abs_r1	Abs_t1	Abs_t2	neck_flexion	neck_bending	neck_rotation	arm_flex_r	arm_add_r	arm_rot_r	elbow_flex_r	pro_sup_r	wrist_flex_r	wrist_dev_r	arm_flex_l	arm_add_l	arm_rot_l	elbow_flex_l	pro_sup_l	wrist_flex_l	wrist_dev_l
1.983333	4.395713	-3.266741	81.001510	0.319346	0.962572	0.449751	-3.124139	-2.034477	-5.758308	16.249486	0.283607	42.003999	15.187999	0.000000	-3.293635	-1.223233	-15.632848	16.861123	0.294282	43.102445	-12.731516	0.000000	0.112856	0.312033	-1.832801	0.209584	0.415004	-1.947351	0.185411	0.758677	-1.947351	0.128983	0.758677	-1.603700	0.104798	0.636298	-1.489150	0.064486	0.483339	-1.374600	0.806117	3.529779	-10.193487	0.000000	0.000000	10.934863	2.561454	26.930015	10.775814	-16.652124	57.938270	98.476919	84.673822	7.104410	29.175059	48.397031	-31.213325	-32.748659	125.131472	78.942939	-3.423844	1.492429
2.000000	4.408615	-3.243432	81.001421	0.319683	0.962139	0.449824	-3.124103	-2.034646	-5.993606	16.379621	0.285878	41.941757	15.033397	0.000000	-3.309524	-1.251790	-15.419721	16.896906	0.294907	43.373314	-12.437252	0.000000	0.115682	0.311506	-1.843455	0.214832	0.414303	-1.958671	0.190053	0.757396	-1.958671	0.132213	0.757396	-1.613023	0.107422	0.635223	-1.497807	0.066100	0.482523	-1.382591	0.826302	3.523818	-10.252741	0.000000	0.000000	11.740754	2.507014	25.663314	10.817634	-16.702808	58.410688	97.984561	84.513514	8.364052	29.463610	44.723071	-30.620276	-33.032288	124.555384	78.208813	-4.059104	2.726723
2.016667	4.406904	-3.196719	81.002072	0.320038	0.961672	0.449982	-3.129150	-2.058322	-6.259690	16.541139	0.288697	41.912049	14.929230	0.000000	-3.330878	-1.266235	-15.226433	16.946189	0.295767	43.647696	-12.179199	0.000000	0.109521	0.304720	-1.819592	0.203392	0.405277	-1.933316	0.179932	0.740896	-1.933316	0.125172	0.740896	-1.592143	0.101701	0.621385	-1.478418	0.062580	0.472011	-1.364694	0.782299	3.447051	-10.120023	0.000000	0.000000	12.670682	2.507388	23.957655	10.738236	-16.722200	58.546378	97.499260	84.523648	9.885605	29.749983	41.057945	-29.750537	-32.895464	123.718283	77.279004	-4.468981	4.024436
2.033333	4.385550	-3.148663	81.029325	0.320334	0.961176	0.450161	-3.134372	-2.097707	-6.510603	16.705572	0.291567	41.886277	14.806054	0.000000	-3.330867	-1.265964	-15.046523	17.020440	0.297063	43.911341	-11.942318	0.000000	0.099287	0.292414	-1.781031	0.184385	0.388911	-1.892346	0.163118	0.710975	-1.892346	0.113475	0.710975	-1.558402	0.092198	0.596291	-1.447088	0.056732	0.452949	-1.335774	0.709195	3.307845	-9.905562	0.000000	0.000000	13.642857	2.378828	21.790361	10.633431	-16.747362	58.566107	97.022698	84.666600	11.204045	29.951255	37.440816	-28.599790	-32.392819	122.671077	76.371077	-4.797776	5.273158
2.050000	4.358891	-3.084965	81.097605	0.320632	0.960692	0.450437	-3.151516	-2.135954	-6.760773	16.880618	0.294622	41.858328	14.704919	0.000000	-3.320535	-1.269464	-14.869066	17.119641	0.298794	44.163736	-11.760460	0.000000	0.080162	0.274977	-1.737345	0.148868	0.365719	-1.845929	0.131698	0.668578	-1.845929	0.091617	0.668578	-1.520177	0.074438	0.560732	-1.411593	0.045804	0.425939	-1.303009	0.572588	3.110591	-9.662593	0.000000	0.000000	14.633829	2.259070	19.421661	10.547540	-16.754598	58.497107	96.538049	85.035619	12.405290	30.043060	33.999049	-27.261654	-31.523874	121.477159	75.910964	-5.188732	6.479535
2.066667	4.306318	-3.016793	81.200234	0.320922	0.960231	0.450762	-3.175316	-2.189247	-6.966861	17.048795	0.297558	41.825502	14.595628	0.000000	-3.296191	-1.255040	-14.726468	17.232557	0.300765	44.388544	-11.633589	0.000000	0.055526	0.250378	-1.686979	0.103118	0.333002	-1.792416	0.091224	0.608768	-1.792416	0.063461	0.608768	-1.476107	0.051562	0.510570	-1.370671	0.031728	0.387835	-1.265235	0.396620	2.832322	-9.382473	0.000000	0.000000	15.595908	2.026147	16.791592	10.444823	-16.768553	58.370699	96.068196	85.589128	13.234241	30.010793	30.866122	-25.768972	-30.276755	120.134505	75.953455	-5.629256	7.369825
2.083333	4.231074	-2.949557	81.341762	0.321221	0.959806	0.451128	-3.201889	-2.248719	-7.106952	17.205059	0.300285	41.795429	14.472615	0.000000	-3.255251	-1.231145	-14.637886	17.360799	0.303003	44.571612	-11.558650	0.000000	0.025864	0.220036	-1.635379	0.048033	0.292648	-1.737590	0.042493	0.534995	-1.737590	0.029560	0.534995	-1.430957	0.024018	0.448697	-1.328746	0.014779	0.340836	-1.226534	0.184747	2.489090	-9.095488	0.000000	0.000000	16.495190	1.661055	14.035623	10.326281	-16.793804	58.229576	95.615771	86.254569	13.653270	29.884918	28.124120	-24.193981	-28.732377	118.708875	76.454891	-6.012846	7.842996
2.100000	4.135505	-2.904597	81.512888	0.321536	0.959407	0.451495	-3.211035	-2.309690	-7.170606	17.341781	0.302671	41.782011	14.350982	0.000000	-3.184251	-1.200390	-14.613627	17.495885	0.305361	44.701421	-11.546587	0.000000	-0.005209	0.186107	-1.583698	-0.009674	0.247522	-1.682679	-0.008558	0.452500	-1.682679	-0.005954	0.452500	-1.385735	-0.004837	0.379509	-1.286754	-0.002976	0.288280	-1.187773	-0.037208	2.105279	-8.808051	0.000000	0.000000	17.324446	1.108867	11.229574	10.167640	-16.846291	58.098087	95.197728	87.026328	13.668106	29.684993	25.790441	-22.582534	-26.988422	117.314590	77.378448	-6.315333	7.838494
